<mxfile host="app.diagrams.net" modified="2023-09-22T12:39:34.532Z" agent="Mozilla/5.0 (X11; Linux x86_64; rv:109.0) Gecko/20100101 Firefox/117.0" etag="tEbHlWbTTPcY5tvPQenq" version="21.7.5" type="device">
  <diagram name="Страница — 1" id="asjJsNEsV4sUCwpO-uc3">
    <mxGraphModel dx="1499" dy="815" grid="1" gridSize="10" guides="1" tooltips="1" connect="1" arrows="1" fold="1" page="1" pageScale="1" pageWidth="827" pageHeight="1169" math="0" shadow="0">
      <root>
        <mxCell id="0" />
        <mxCell id="1" parent="0" />
        <mxCell id="OJHOjQA2mOfHRrMBEqSA-5" value="&lt;p style=&quot;line-height: 110%; font-size: 11px;&quot;&gt;&lt;font style=&quot;font-size: 11px;&quot;&gt;Является членом&lt;br&gt;&lt;/font&gt;&lt;/p&gt;" style="rhombus;whiteSpace=wrap;html=1;" parent="1" vertex="1">
          <mxGeometry x="537.5" y="280" width="100" height="60" as="geometry" />
        </mxCell>
        <mxCell id="OJHOjQA2mOfHRrMBEqSA-11" value="&lt;font style=&quot;font-size: 10px;&quot;&gt;Является частью&lt;br&gt;&lt;/font&gt;" style="rhombus;whiteSpace=wrap;html=1;" parent="1" vertex="1">
          <mxGeometry x="370" y="210" width="90" height="60" as="geometry" />
        </mxCell>
        <mxCell id="OJHOjQA2mOfHRrMBEqSA-27" style="edgeStyle=orthogonalEdgeStyle;rounded=0;orthogonalLoop=1;jettySize=auto;html=1;entryX=0.161;entryY=-0.013;entryDx=0;entryDy=0;entryPerimeter=0;" parent="1" source="OJHOjQA2mOfHRrMBEqSA-14" edge="1">
          <mxGeometry relative="1" as="geometry">
            <mxPoint x="509.31999999999994" y="189.22000000000003" as="targetPoint" />
          </mxGeometry>
        </mxCell>
        <mxCell id="OJHOjQA2mOfHRrMBEqSA-28" style="edgeStyle=orthogonalEdgeStyle;rounded=0;orthogonalLoop=1;jettySize=auto;html=1;entryX=0.5;entryY=0;entryDx=0;entryDy=0;" parent="1" source="OJHOjQA2mOfHRrMBEqSA-15" edge="1">
          <mxGeometry relative="1" as="geometry">
            <mxPoint x="550" y="190" as="targetPoint" />
          </mxGeometry>
        </mxCell>
        <mxCell id="OJHOjQA2mOfHRrMBEqSA-29" style="edgeStyle=orthogonalEdgeStyle;rounded=0;orthogonalLoop=1;jettySize=auto;html=1;entryX=0.75;entryY=0;entryDx=0;entryDy=0;" parent="1" source="OJHOjQA2mOfHRrMBEqSA-16" edge="1">
          <mxGeometry relative="1" as="geometry">
            <mxPoint x="580" y="190" as="targetPoint" />
          </mxGeometry>
        </mxCell>
        <mxCell id="OJHOjQA2mOfHRrMBEqSA-23" style="edgeStyle=orthogonalEdgeStyle;rounded=0;orthogonalLoop=1;jettySize=auto;html=1;entryX=0.25;entryY=1;entryDx=0;entryDy=0;" parent="1" target="OJHOjQA2mOfHRrMBEqSA-3" edge="1">
          <mxGeometry relative="1" as="geometry">
            <mxPoint x="450" y="440" as="sourcePoint" />
          </mxGeometry>
        </mxCell>
        <mxCell id="OJHOjQA2mOfHRrMBEqSA-53" style="edgeStyle=orthogonalEdgeStyle;rounded=0;orthogonalLoop=1;jettySize=auto;html=1;entryX=0.25;entryY=0;entryDx=0;entryDy=0;" parent="1" source="OJHOjQA2mOfHRrMBEqSA-19" edge="1">
          <mxGeometry relative="1" as="geometry">
            <mxPoint x="210" y="210" as="targetPoint" />
          </mxGeometry>
        </mxCell>
        <mxCell id="OJHOjQA2mOfHRrMBEqSA-62" style="edgeStyle=orthogonalEdgeStyle;rounded=0;orthogonalLoop=1;jettySize=auto;html=1;" parent="1" source="OJHOjQA2mOfHRrMBEqSA-20" edge="1">
          <mxGeometry relative="1" as="geometry">
            <mxPoint x="240" y="210" as="targetPoint" />
          </mxGeometry>
        </mxCell>
        <mxCell id="OJHOjQA2mOfHRrMBEqSA-42" style="edgeStyle=orthogonalEdgeStyle;rounded=0;orthogonalLoop=1;jettySize=auto;html=1;entryX=0;entryY=0.5;entryDx=0;entryDy=0;" parent="1" source="OJHOjQA2mOfHRrMBEqSA-22" edge="1">
          <mxGeometry relative="1" as="geometry">
            <mxPoint x="180" y="240" as="targetPoint" />
          </mxGeometry>
        </mxCell>
        <mxCell id="OJHOjQA2mOfHRrMBEqSA-63" style="edgeStyle=orthogonalEdgeStyle;rounded=0;orthogonalLoop=1;jettySize=auto;html=1;entryX=0.75;entryY=0;entryDx=0;entryDy=0;" parent="1" source="OJHOjQA2mOfHRrMBEqSA-30" edge="1">
          <mxGeometry relative="1" as="geometry">
            <mxPoint x="270" y="210" as="targetPoint" />
          </mxGeometry>
        </mxCell>
        <mxCell id="OJHOjQA2mOfHRrMBEqSA-50" style="edgeStyle=orthogonalEdgeStyle;rounded=0;orthogonalLoop=1;jettySize=auto;html=1;entryX=0.5;entryY=1;entryDx=0;entryDy=0;" parent="1" target="OJHOjQA2mOfHRrMBEqSA-3" edge="1">
          <mxGeometry relative="1" as="geometry">
            <mxPoint x="550" y="450" as="sourcePoint" />
          </mxGeometry>
        </mxCell>
        <mxCell id="OJHOjQA2mOfHRrMBEqSA-41" style="edgeStyle=orthogonalEdgeStyle;rounded=0;orthogonalLoop=1;jettySize=auto;html=1;entryX=0;entryY=0.75;entryDx=0;entryDy=0;" parent="1" source="OJHOjQA2mOfHRrMBEqSA-38" edge="1">
          <mxGeometry relative="1" as="geometry">
            <mxPoint x="180" y="255" as="targetPoint" />
          </mxGeometry>
        </mxCell>
        <mxCell id="OJHOjQA2mOfHRrMBEqSA-54" value="Может сесть" style="rhombus;whiteSpace=wrap;html=1;" parent="1" vertex="1">
          <mxGeometry x="105" y="310" width="110" height="50" as="geometry" />
        </mxCell>
        <mxCell id="OJHOjQA2mOfHRrMBEqSA-64" style="edgeStyle=orthogonalEdgeStyle;rounded=0;orthogonalLoop=1;jettySize=auto;html=1;entryX=1;entryY=0.25;entryDx=0;entryDy=0;" parent="1" source="OJHOjQA2mOfHRrMBEqSA-59" edge="1">
          <mxGeometry relative="1" as="geometry">
            <mxPoint x="300" y="225" as="targetPoint" />
          </mxGeometry>
        </mxCell>
        <mxCell id="IUK0KO1ywna6gNazqfRK-35" style="edgeStyle=orthogonalEdgeStyle;rounded=0;orthogonalLoop=1;jettySize=auto;html=1;entryX=1;entryY=0.5;entryDx=0;entryDy=0;endArrow=none;endFill=0;" edge="1" parent="1" source="OJHOjQA2mOfHRrMBEqSA-65" target="IUK0KO1ywna6gNazqfRK-30">
          <mxGeometry relative="1" as="geometry" />
        </mxCell>
        <mxCell id="OJHOjQA2mOfHRrMBEqSA-65" value="&lt;p style=&quot;line-height: 50%;&quot;&gt;&lt;font style=&quot;font-size: 9px;&quot;&gt;Расстояния между друг другом&lt;/font&gt;&lt;/p&gt;" style="rhombus;whiteSpace=wrap;html=1;" parent="1" vertex="1">
          <mxGeometry x="234" y="525" width="136" height="60" as="geometry" />
        </mxCell>
        <mxCell id="OJHOjQA2mOfHRrMBEqSA-73" value="Находится сейчас" style="rhombus;whiteSpace=wrap;html=1;" parent="1" vertex="1">
          <mxGeometry x="239" y="330" width="110" height="50" as="geometry" />
        </mxCell>
        <mxCell id="IUK0KO1ywna6gNazqfRK-5" value="" style="edgeStyle=orthogonalEdgeStyle;rounded=0;orthogonalLoop=1;jettySize=auto;html=1;endArrow=none;endFill=0;" edge="1" parent="1" source="IUK0KO1ywna6gNazqfRK-1" target="OJHOjQA2mOfHRrMBEqSA-5">
          <mxGeometry relative="1" as="geometry" />
        </mxCell>
        <mxCell id="IUK0KO1ywna6gNazqfRK-1" value="Человек" style="swimlane;fontStyle=0;childLayout=stackLayout;horizontal=1;startSize=26;horizontalStack=0;resizeParent=1;resizeParentMax=0;resizeLast=0;collapsible=1;marginBottom=0;align=center;fontSize=14;" vertex="1" parent="1">
          <mxGeometry x="507.5" y="120" width="160" height="116" as="geometry" />
        </mxCell>
        <mxCell id="IUK0KO1ywna6gNazqfRK-2" value="ID" style="text;strokeColor=none;fillColor=none;spacingLeft=4;spacingRight=4;overflow=hidden;rotatable=0;points=[[0,0.5],[1,0.5]];portConstraint=eastwest;fontSize=12;whiteSpace=wrap;html=1;" vertex="1" parent="IUK0KO1ywna6gNazqfRK-1">
          <mxGeometry y="26" width="160" height="30" as="geometry" />
        </mxCell>
        <mxCell id="IUK0KO1ywna6gNazqfRK-3" value="Имя" style="text;strokeColor=none;fillColor=none;spacingLeft=4;spacingRight=4;overflow=hidden;rotatable=0;points=[[0,0.5],[1,0.5]];portConstraint=eastwest;fontSize=12;whiteSpace=wrap;html=1;" vertex="1" parent="IUK0KO1ywna6gNazqfRK-1">
          <mxGeometry y="56" width="160" height="30" as="geometry" />
        </mxCell>
        <mxCell id="IUK0KO1ywna6gNazqfRK-4" value="Здоровье" style="text;strokeColor=none;fillColor=none;spacingLeft=4;spacingRight=4;overflow=hidden;rotatable=0;points=[[0,0.5],[1,0.5]];portConstraint=eastwest;fontSize=12;whiteSpace=wrap;html=1;" vertex="1" parent="IUK0KO1ywna6gNazqfRK-1">
          <mxGeometry y="86" width="160" height="30" as="geometry" />
        </mxCell>
        <mxCell id="IUK0KO1ywna6gNazqfRK-12" style="edgeStyle=orthogonalEdgeStyle;rounded=0;orthogonalLoop=1;jettySize=auto;html=1;entryX=0.5;entryY=1;entryDx=0;entryDy=0;endArrow=none;endFill=0;" edge="1" parent="1" source="IUK0KO1ywna6gNazqfRK-6" target="OJHOjQA2mOfHRrMBEqSA-5">
          <mxGeometry relative="1" as="geometry" />
        </mxCell>
        <mxCell id="IUK0KO1ywna6gNazqfRK-14" style="edgeStyle=orthogonalEdgeStyle;rounded=0;orthogonalLoop=1;jettySize=auto;html=1;entryX=0.5;entryY=1;entryDx=0;entryDy=0;endArrow=none;endFill=0;" edge="1" parent="1" source="IUK0KO1ywna6gNazqfRK-6" target="OJHOjQA2mOfHRrMBEqSA-11">
          <mxGeometry relative="1" as="geometry" />
        </mxCell>
        <mxCell id="IUK0KO1ywna6gNazqfRK-6" value="Экипаж" style="swimlane;fontStyle=0;childLayout=stackLayout;horizontal=1;startSize=26;horizontalStack=0;resizeParent=1;resizeParentMax=0;resizeLast=0;collapsible=1;marginBottom=0;align=center;fontSize=14;" vertex="1" parent="1">
          <mxGeometry x="370" y="360" width="160" height="86" as="geometry" />
        </mxCell>
        <mxCell id="IUK0KO1ywna6gNazqfRK-7" value="ID" style="text;strokeColor=none;fillColor=none;spacingLeft=4;spacingRight=4;overflow=hidden;rotatable=0;points=[[0,0.5],[1,0.5]];portConstraint=eastwest;fontSize=12;whiteSpace=wrap;html=1;" vertex="1" parent="IUK0KO1ywna6gNazqfRK-6">
          <mxGeometry y="26" width="160" height="30" as="geometry" />
        </mxCell>
        <mxCell id="IUK0KO1ywna6gNazqfRK-8" value="Капитал" style="text;strokeColor=none;fillColor=none;spacingLeft=4;spacingRight=4;overflow=hidden;rotatable=0;points=[[0,0.5],[1,0.5]];portConstraint=eastwest;fontSize=12;whiteSpace=wrap;html=1;" vertex="1" parent="IUK0KO1ywna6gNazqfRK-6">
          <mxGeometry y="56" width="160" height="30" as="geometry" />
        </mxCell>
        <mxCell id="IUK0KO1ywna6gNazqfRK-25" style="edgeStyle=orthogonalEdgeStyle;rounded=0;orthogonalLoop=1;jettySize=auto;html=1;endArrow=none;endFill=0;" edge="1" parent="1" source="IUK0KO1ywna6gNazqfRK-18" target="OJHOjQA2mOfHRrMBEqSA-11">
          <mxGeometry relative="1" as="geometry" />
        </mxCell>
        <mxCell id="IUK0KO1ywna6gNazqfRK-18" value="Корабль" style="swimlane;fontStyle=0;childLayout=stackLayout;horizontal=1;startSize=26;horizontalStack=0;resizeParent=1;resizeParentMax=0;resizeLast=0;collapsible=1;marginBottom=0;align=center;fontSize=14;" vertex="1" parent="1">
          <mxGeometry x="130" y="67" width="160" height="222" as="geometry" />
        </mxCell>
        <mxCell id="IUK0KO1ywna6gNazqfRK-19" value="ID" style="text;strokeColor=none;fillColor=none;spacingLeft=4;spacingRight=4;overflow=hidden;rotatable=0;points=[[0,0.5],[1,0.5]];portConstraint=eastwest;fontSize=12;whiteSpace=wrap;html=1;" vertex="1" parent="IUK0KO1ywna6gNazqfRK-18">
          <mxGeometry y="26" width="160" height="30" as="geometry" />
        </mxCell>
        <mxCell id="IUK0KO1ywna6gNazqfRK-20" value="Имя корабля" style="text;strokeColor=none;fillColor=none;spacingLeft=4;spacingRight=4;overflow=hidden;rotatable=0;points=[[0,0.5],[1,0.5]];portConstraint=eastwest;fontSize=12;whiteSpace=wrap;html=1;" vertex="1" parent="IUK0KO1ywna6gNazqfRK-18">
          <mxGeometry y="56" width="160" height="30" as="geometry" />
        </mxCell>
        <mxCell id="IUK0KO1ywna6gNazqfRK-21" value="Вместимость" style="text;strokeColor=none;fillColor=none;spacingLeft=4;spacingRight=4;overflow=hidden;rotatable=0;points=[[0,0.5],[1,0.5]];portConstraint=eastwest;fontSize=12;whiteSpace=wrap;html=1;" vertex="1" parent="IUK0KO1ywna6gNazqfRK-18">
          <mxGeometry y="86" width="160" height="34" as="geometry" />
        </mxCell>
        <mxCell id="IUK0KO1ywna6gNazqfRK-23" value="Коэф. надежности" style="text;strokeColor=none;fillColor=none;spacingLeft=4;spacingRight=4;overflow=hidden;rotatable=0;points=[[0,0.5],[1,0.5]];portConstraint=eastwest;fontSize=12;whiteSpace=wrap;html=1;" vertex="1" parent="IUK0KO1ywna6gNazqfRK-18">
          <mxGeometry y="120" width="160" height="34" as="geometry" />
        </mxCell>
        <mxCell id="IUK0KO1ywna6gNazqfRK-24" value="Стоимость" style="text;strokeColor=none;fillColor=none;spacingLeft=4;spacingRight=4;overflow=hidden;rotatable=0;points=[[0,0.5],[1,0.5]];portConstraint=eastwest;fontSize=12;whiteSpace=wrap;html=1;" vertex="1" parent="IUK0KO1ywna6gNazqfRK-18">
          <mxGeometry y="154" width="160" height="34" as="geometry" />
        </mxCell>
        <mxCell id="IUK0KO1ywna6gNazqfRK-22" value="Дальность полета" style="text;strokeColor=none;fillColor=none;spacingLeft=4;spacingRight=4;overflow=hidden;rotatable=0;points=[[0,0.5],[1,0.5]];portConstraint=eastwest;fontSize=12;whiteSpace=wrap;html=1;" vertex="1" parent="IUK0KO1ywna6gNazqfRK-18">
          <mxGeometry y="188" width="160" height="34" as="geometry" />
        </mxCell>
        <mxCell id="IUK0KO1ywna6gNazqfRK-26" style="edgeStyle=orthogonalEdgeStyle;rounded=0;orthogonalLoop=1;jettySize=auto;html=1;exitX=0;exitY=0.5;exitDx=0;exitDy=0;entryX=0;entryY=0.5;entryDx=0;entryDy=0;endArrow=none;endFill=0;" edge="1" parent="1" source="IUK0KO1ywna6gNazqfRK-22" target="OJHOjQA2mOfHRrMBEqSA-54">
          <mxGeometry relative="1" as="geometry" />
        </mxCell>
        <mxCell id="IUK0KO1ywna6gNazqfRK-27" style="edgeStyle=orthogonalEdgeStyle;rounded=0;orthogonalLoop=1;jettySize=auto;html=1;entryX=0.5;entryY=0;entryDx=0;entryDy=0;endArrow=none;endFill=0;" edge="1" parent="1" source="IUK0KO1ywna6gNazqfRK-22" target="OJHOjQA2mOfHRrMBEqSA-73">
          <mxGeometry relative="1" as="geometry" />
        </mxCell>
        <mxCell id="IUK0KO1ywna6gNazqfRK-31" style="edgeStyle=orthogonalEdgeStyle;rounded=0;orthogonalLoop=1;jettySize=auto;html=1;entryX=0.5;entryY=1;entryDx=0;entryDy=0;endArrow=none;endFill=0;" edge="1" parent="1" source="IUK0KO1ywna6gNazqfRK-28" target="OJHOjQA2mOfHRrMBEqSA-54">
          <mxGeometry relative="1" as="geometry" />
        </mxCell>
        <mxCell id="IUK0KO1ywna6gNazqfRK-33" style="edgeStyle=orthogonalEdgeStyle;rounded=0;orthogonalLoop=1;jettySize=auto;html=1;exitX=1;exitY=0.25;exitDx=0;exitDy=0;entryX=0.5;entryY=1;entryDx=0;entryDy=0;endArrow=none;endFill=0;" edge="1" parent="1" source="IUK0KO1ywna6gNazqfRK-28" target="OJHOjQA2mOfHRrMBEqSA-73">
          <mxGeometry relative="1" as="geometry" />
        </mxCell>
        <mxCell id="IUK0KO1ywna6gNazqfRK-37" style="edgeStyle=orthogonalEdgeStyle;rounded=0;orthogonalLoop=1;jettySize=auto;html=1;entryX=0;entryY=0.5;entryDx=0;entryDy=0;endArrow=none;endFill=0;" edge="1" parent="1" source="IUK0KO1ywna6gNazqfRK-28" target="OJHOjQA2mOfHRrMBEqSA-65">
          <mxGeometry relative="1" as="geometry" />
        </mxCell>
        <mxCell id="IUK0KO1ywna6gNazqfRK-28" value="Планета" style="swimlane;fontStyle=0;childLayout=stackLayout;horizontal=1;startSize=26;horizontalStack=0;resizeParent=1;resizeParentMax=0;resizeLast=0;collapsible=1;marginBottom=0;align=center;fontSize=14;" vertex="1" parent="1">
          <mxGeometry x="74" y="412.5" width="160" height="100" as="geometry" />
        </mxCell>
        <mxCell id="IUK0KO1ywna6gNazqfRK-29" value="Название" style="text;strokeColor=none;fillColor=none;spacingLeft=4;spacingRight=4;overflow=hidden;rotatable=0;points=[[0,0.5],[1,0.5]];portConstraint=eastwest;fontSize=12;whiteSpace=wrap;html=1;" vertex="1" parent="IUK0KO1ywna6gNazqfRK-28">
          <mxGeometry y="26" width="160" height="30" as="geometry" />
        </mxCell>
        <mxCell id="IUK0KO1ywna6gNazqfRK-30" value="Необходимый коэф. надежности" style="text;strokeColor=none;fillColor=none;spacingLeft=4;spacingRight=4;overflow=hidden;rotatable=0;points=[[0,0.5],[1,0.5]];portConstraint=eastwest;fontSize=12;whiteSpace=wrap;html=1;" vertex="1" parent="IUK0KO1ywna6gNazqfRK-28">
          <mxGeometry y="56" width="160" height="44" as="geometry" />
        </mxCell>
      </root>
    </mxGraphModel>
  </diagram>
</mxfile>
